<?xml version="1.0" standalone="no"?><!DOCTYPE svg PUBLIC "-//W3C//DTD SVG 1.1//EN" "http://www.w3.org/Graphics/SVG/1.1/DTD/svg11.dtd"><svg t="1642746398030" class="icon" viewBox="0 0 1024 1024" version="1.1" xmlns="http://www.w3.org/2000/svg" p-id="9135" xmlns:xlink="http://www.w3.org/1999/xlink" width="128" height="128"><defs><style type="text/css"></style></defs><path d="M290.816 774.144h167.936c12.288 0 20.48 8.192 20.48 20.48s-8.192 20.48-20.48 20.48h-219.136c-12.288 0-20.48-8.192-20.48-20.48v-2.048-206.848c0-12.288 8.192-20.48 20.48-20.48s20.48 8.192 20.48 20.48v163.84l210.944-198.656c8.192-8.192 20.48-8.192 28.672 0s8.192 20.48 0 28.672l-208.896 194.56z m462.848-524.288h-167.936c-12.288 0-20.48-8.192-20.48-20.48s8.192-20.48 20.48-20.48h219.136c12.288 0 20.48 8.192 20.48 20.48v208.896c0 12.288-8.192 20.48-20.48 20.48s-20.48-8.192-20.48-20.48v-163.84l-210.944 198.656c-8.192 8.192-20.48 8.192-28.672 0s-8.192-20.48 0-28.672l208.896-194.56z m188.416 323.584c0 12.288-8.192 20.48-20.48 20.48s-20.48-8.192-20.48-20.48v-389.12c0-34.816-26.624-61.44-61.44-61.44h-655.36c-34.816 0-61.44 26.624-61.44 61.44v655.36c0 34.816 26.624 61.44 61.44 61.44h655.36c34.816 0 61.44-26.624 61.44-61.44v-94.208c0-12.288 8.192-20.48 20.48-20.48s20.48 8.192 20.48 20.48v94.208c0 57.344-45.056 102.4-102.4 102.4h-655.36c-57.344 0-102.4-45.056-102.4-102.4v-655.36c0-57.344 45.056-102.4 102.4-102.4h655.36c57.344 0 102.4 45.056 102.4 102.4v389.12z" p-id="9136" fill="#ffffff"></path></svg>